<?xml version="1.0" encoding="UTF-8"?>
<svg width="128px" height="28px" viewBox="0 0 128 28" version="1.1" xmlns="http://www.w3.org/2000/svg" xmlns:xlink="http://www.w3.org/1999/xlink">
    <title>B83DFCDB-ADC5-47B8-A460-A4038752ED7F</title>
    <defs>
        <linearGradient x1="90.4999337%" y1="80.6354818%" x2="59.967708%" y2="34.8254772%" id="linearGradient-1">
            <stop stop-color="#1D75B9" offset="0%"></stop>
            <stop stop-color="#2D97EA" offset="100%"></stop>
        </linearGradient>
        <linearGradient x1="65.1029737%" y1="90.8268191%" x2="50%" y2="10.3822173%" id="linearGradient-2">
            <stop stop-color="#6F066D" offset="0%"></stop>
            <stop stop-color="#92278F" offset="100%"></stop>
        </linearGradient>
    </defs>
    <g id="Page-1" stroke="none" stroke-width="1" fill="none" fill-rule="evenodd">
        <g id="разводящая-1280" transform="translate(-36.000000, -26.000000)">
            <g id="logo_black" transform="translate(36.000000, 26.000000)">
                <path d="M53.0191268,8.03396809 L48.0681913,9.06145136 C47.7987526,8.10025733 46.6536383,7.33793103 45.2054054,7.33793103 C43.7234927,7.33793103 42.6120582,8.06711271 42.6120582,9.09459599 C42.6120582,10.2546577 43.8245322,10.7186824 46.8220374,11.547298 L47.5293139,11.7461657 C49.2806653,12.2764797 50.2910603,12.7073598 51.7392931,13.6685538 C53.187526,14.6297478 53.9621622,16.2538343 53.9621622,18.2756562 C53.9621622,20.3637674 53.187526,22.0209985 51.6719335,23.2473495 C50.156341,24.4737005 48.2029106,25.1034483 45.7779626,25.1034483 C43.5550936,25.1034483 41.635343,24.5731343 40.018711,23.5456511 C38.4357588,22.5181678 37.391684,21.1592383 36.9538462,19.4688626 L42.0058212,18.4082347 C42.3089397,19.7008749 43.8582121,20.662069 45.7779626,20.662069 C47.5629938,20.662069 48.9438669,19.866598 48.9438669,18.7065363 C48.9438669,17.94421 48.1692308,17.3144622 46.6199584,16.7841482 L44.9022869,16.2538343 L42.7804574,15.5909418 C42.2752599,15.3920741 41.635343,15.0937725 40.8607069,14.6960371 C40.1197505,14.2983016 39.5471933,13.9005661 39.1430353,13.4696861 C38.3347193,12.6410705 37.593763,11.1827072 37.593763,9.49233145 C37.593763,7.53679876 38.3010395,5.94585692 39.6819127,4.71950592 C41.0627859,3.49315492 42.8814969,2.89655172 45.1043659,2.89655172 C47.0914761,2.89655172 48.8091476,3.39372105 50.2573805,4.35491508 C51.7056133,5.31610911 52.6486486,6.54246011 53.0191268,8.03396809 Z M66.6594595,9.7243438 C66.6594595,8.43170355 65.3459459,7.40422028 63.7629938,7.40422028 C62.1126819,7.40422028 60.7318087,8.53113742 60.0245322,10.2878024 L55.5451143,8.16654658 C57.0607069,4.88522903 60.1255717,2.89655172 63.7629938,2.89655172 C65.952183,2.89655172 67.8382536,3.55944416 69.3538462,4.85208441 C70.9031185,6.14472465 71.6777547,7.7356665 71.6777547,9.55862069 C71.6777547,11.7793103 70.0948025,14.2983016 66.8952183,17.1487391 L63.5609148,20.2311889 L71.8461538,20.2311889 L71.8461538,24.7720021 L56.1513514,24.7720021 L56.1513514,21.2586722 L63.9987526,14 C65.7837838,12.3759135 66.6594595,10.9506948 66.6594595,9.7243438 Z" id="S2-Copy-13" fill="#343440"></path>
                <path d="M2.05949515,27.4446513 C0.785026481,26.7041863 0,25.336008 0,23.8549742 L0,4.14502577 C0,2.66430346 0.785026481,1.29581371 2.05949515,0.555348734 C3.33386065,-0.185116245 4.90391361,-0.185116245 6.17848545,0.555348734 L23.140381,10.410323 C24.4149529,11.1508918 25.1999794,12.5191739 25.1999794,14 C25.1999794,15.48093 24.4149529,16.8494197 23.140381,17.5897809 L6.17848545,27.4446513 C5.5413027,27.8148838 4.83024967,28 4.1189903,28 C3.4078341,28 2.69678107,27.8148838 2.05949515,27.4446513 Z" id="Fill-3" fill="url(#linearGradient-1)" fill-rule="nonzero"></path>
                <path d="M11.8934512,3.9228714 C9.87314624,2.96100451 6.07079579,5.0235856 5.60539239,8.54401276 C5.23191416,11.4351693 6.47274916,13.2033772 7.71430635,14.8607023 C8.90685742,16.4524113 10.2303322,17.9706137 10.6302222,20.39519 C11.285563,24.1023946 8.76210881,25.9201261 8.1124424,26.3210901 L23.1404017,17.5897912 C24.4149735,16.8494301 25.2,15.4809403 25.2,14.0000104 C25.2,12.5191842 24.4149735,11.1509021 23.1404017,10.4103333 L11.8934512,3.9228714 Z" id="Fill-5" fill="url(#linearGradient-2)" fill-rule="nonzero"></path>
                <path d="M17.6960285,7.21144079 C15.3067351,6.36206814 13.1829768,8.49355645 13.1829768,10.7355839 C13.1829768,12.7455207 14.1464759,13.6810574 15.2332312,14.8402002 C16.3199866,15.999343 16.8468925,16.4368678 17.2790106,18.1157611 C17.7660713,19.8641109 17.0212343,20.8190221 16.7768497,21.5033882 L23.2886024,17.7470967 C24.5821442,16.9957164 25.3788546,15.6068588 25.3788546,14.1038876 C25.3788546,12.6010216 24.5821442,11.2123748 23.2886024,10.4607838 L17.6960285,7.21144079 Z" id="Fill-9" fill="#E62F6D" fill-rule="nonzero"></path>
                <rect id="Rectangle" stroke="#343440" stroke-width="1.93103448" fill="#343440" x="83" y="2" width="44" height="23" rx="3.86206889"></rect>
                <g id="ERP" transform="translate(90.122000, 7.661000)" fill="#FFFFFF" fill-rule="nonzero">
                    <polygon id="Path" points="8.024 11.339 0 11.339 0 0 8.024 0 8.024 2.125 2.414 2.125 2.414 4.522 7.905 4.522 7.905 6.647 2.414 6.647 2.414 9.214 8.024 9.214"></polygon>
                    <path d="M19.4495687,11.339 L16.6785687,11.339 L14.4515687,7.31 L12.6835687,7.31 L12.6835687,11.339 L10.2695687,11.339 L10.2695687,0 L15.5735687,0 C16.7409021,0 17.6674021,0.34 18.3530687,1.02 C19.0387354,1.7 19.3815687,2.57833333 19.3815687,3.655 C19.3815687,4.58433333 19.1407354,5.338 18.6590687,5.916 C18.1774021,6.494 17.5909021,6.86233333 16.8995687,7.021 L19.4495687,11.339 Z M15.2165687,5.185 C15.7152354,5.185 16.1232354,5.04616667 16.4405687,4.7685 C16.7579021,4.49083333 16.9165687,4.11966667 16.9165687,3.655 C16.9165687,3.19033333 16.7579021,2.81916667 16.4405687,2.5415 C16.1232354,2.26383333 15.7152354,2.125 15.2165687,2.125 L12.6835687,2.125 L12.6835687,5.185 L15.2165687,5.185 Z" id="Shape"></path>
                    <path d="M23.9731375,11.339 L21.5591375,11.339 L21.5591375,0 L26.8631375,0 C28.0531375,0 28.9853042,0.3485 29.6596375,1.0455 C30.3339708,1.7425 30.6711375,2.61233333 30.6711375,3.655 C30.6711375,4.68633333 30.3311375,5.55333333 29.6511375,6.256 C28.9711375,6.95866667 28.0418042,7.31 26.8631375,7.31 L23.9731375,7.31 L23.9731375,11.339 Z M26.5401375,5.185 C27.0274708,5.185 27.4269708,5.04616667 27.7386375,4.7685 C28.0503042,4.49083333 28.2061375,4.11966667 28.2061375,3.655 C28.2061375,3.19033333 28.0503042,2.81916667 27.7386375,2.5415 C27.4269708,2.26383333 27.0274708,2.125 26.5401375,2.125 L23.9731375,2.125 L23.9731375,5.185 L26.5401375,5.185 Z" id="Shape"></path>
                </g>
            </g>
        </g>
    </g>
</svg>